<?xml version="1.0" encoding="UTF-8"?><svg xmlns="http://www.w3.org/2000/svg" xmlns:xlink="http://www.w3.org/1999/xlink" height="128.0" preserveAspectRatio="xMidYMid meet" version="1.0" viewBox="6.5 -0.0 115.1 128.0" width="115.1" zoomAndPan="magnify"><g fill="#333" id="change1_1"><path d="m134.94 354c-3.324 0-6 2.676-6 6v96c0 3.324 2.676 6 6 6h82c3.324 0 6-2.676 6-6v-62h-40c-3.324 0-6-2.676-6-6v-34h-42z" fill="inherit" transform="translate(-101.01 -353.4) scale(.99829)"/><path d="m113.66 374.22c-3.324 0-6 2.676-6 6v96c0 3.324 2.676 6 6 6h82c3.324 0 6-2.676 6-6v-7h-73c-3.324 0-6-2.676-6-6v-89h-9z" fill="inherit" transform="translate(-101.01 -353.4) scale(.99829)"/><path d="m180.94 354v30c0 3.324 2.676 6 6 6h36z" fill="inherit" transform="translate(-101.01 -353.4) scale(.99829)"/></g></svg>