<?xml version="1.0" encoding="UTF-8"?><svg xmlns="http://www.w3.org/2000/svg" xmlns:xlink="http://www.w3.org/1999/xlink" height="216.0" preserveAspectRatio="xMidYMid meet" version="1.0" viewBox="-0.4 -11.8 177.7 216.0" width="177.7" zoomAndPan="magnify"><g id="change1_1"><path d="M157.661,29.908c-17.943-10.27-53.569,29.384-66.899,43.404c6.938-12.513,34.569-43.323,9.134-65.561 C77.551-11.781,50.342,8.237,51.894,38.484C53.23,64.51,66.466,64.806,65.204,81.081c-0.718,3.617-2.952,8.597-4.228,13.734 l-60.828,89.43c-0.517,0.761,0.431,1.67,1.117,1.071l55.42-48.354l-0.33,2.028l-1.159,7.132l-9.255,56.821 c-0.145,0.902,1.127,1.228,1.503,0.391l34.406-77.553l6.533-14.728l1.549-3.499l0.056-0.127 c18.991-19.093,24.486-2.066,52.366-20.357C170.992,68.281,177.353,41.174,157.661,29.908z M77.934,54.017 c-9.898-2.146-15.864-13.351-13.333-25.026c2.533-11.682,12.604-19.409,22.503-17.263c9.891,2.145,15.864,13.351,13.331,25.033 C97.904,48.436,87.825,56.162,77.934,54.017z M129.542,80.886c-18.61,5.007-31.459-0.688-20.878-11.228 c0.641-0.637,31.307-34.716,43.211-26.813C163.773,50.74,148.153,75.873,129.542,80.886z" fill="#FFB923"/></g><g id="change2_1"><path d="M88.414,109.056c0.536-0.573,1.059-1.112,1.574-1.63l-0.056,0.127l-1.549,3.499l-6.533,14.728 l-34.406,77.553c-0.376,0.838-1.648,0.512-1.503-0.391l9.255-56.821l1.159-7.132l0.33-2.028l29.426-25.674 c0.185-0.161,0.272-0.391,0.269-0.621C87.058,110.171,87.736,109.644,88.414,109.056z" fill="#F79228"/></g><g id="change3_1"><path d="M157.661,29.908c-17.943-10.27-53.569,29.384-66.899,43.404c6.938-12.513,34.569-43.323,9.134-65.561 C77.551-11.781,50.342,8.237,51.894,38.484C53.23,64.51,66.466,64.806,65.204,81.081c-0.718,3.617-2.952,8.597-4.228,13.734 c-1.487,5.987-1.665,12.185,3.41,16.679c0.033,0.029,0.066,0.052,0.098,0.08c4.899,4.534,13.288,5.413,21.896-0.907 c0.677-0.497,1.356-1.024,2.034-1.612c0.536-0.573,1.059-1.112,1.574-1.63c18.991-19.093,24.486-2.066,52.366-20.357 C170.992,68.281,177.353,41.174,157.661,29.908z M77.992,107.539c-4.893,0.889-9.581-2.358-10.47-7.251s2.358-9.581,7.251-10.47 s9.581,2.358,10.47,7.251C86.132,101.963,82.885,106.65,77.992,107.539z M64.601,28.991c2.533-11.682,12.604-19.409,22.503-17.263 c9.891,2.145,15.864,13.351,13.331,25.033c-2.531,11.675-12.61,19.401-22.501,17.256C68.036,51.871,62.07,40.666,64.601,28.991z M129.542,80.886c-18.61,5.007-31.459-0.688-20.878-11.228c0.641-0.637,31.307-34.716,43.211-26.813 C163.773,50.74,148.153,75.873,129.542,80.886z" fill="#DC3C68"/></g><g id="change1_2"><path d="M86.111,111.289l-29.426,25.674l-55.42,48.354c-0.686,0.599-1.634-0.31-1.117-1.071l60.828-89.43 c-1.487,5.987-1.665,12.185,3.41,16.679c0.033,0.029,0.066,0.052,0.098,0.08c4.899,4.534,13.288,5.413,21.896-0.907 C86.384,110.897,86.296,111.127,86.111,111.289z M85.243,97.069c-0.889-4.893-5.576-8.14-10.47-7.251s-8.14,5.576-7.251,10.47 s5.576,8.14,10.47,7.251C82.885,106.65,86.132,101.963,85.243,97.069z" fill="#FFB923"/></g></svg>